<svg width="361" height="407" viewBox="0 0 361 407" fill="none" xmlns="http://www.w3.org/2000/svg">
<path d="M354.393 -25.8791C387.783 30.1778 272.667 -7.17337 221.124 36.547C164.45 84.6189 170.993 147.38 111.65 191.845C55.748 233.732 1.44646 206.377 -53.0487 250.231C-107.137 293.758 -84.9561 374.764 -148.156 399.818C-238.288 435.548 -281.203 321.443 -298.147 231.72C-307.433 182.543 -301.834 162.964 -272.32 117.576C-233.019 57.1378 -176.629 82.0595 -116.777 42.0935C-33.3155 -13.6383 -43.5324 -102.449 33.4838 -167.56C77.8904 -205.103 115.393 -279.062 158.839 -246.071C242.477 -182.561 310.174 -100.115 354.393 -25.8791Z" fill="url(#paint0_linear_4_934)" fill-opacity="0.5"/>
<defs>
<linearGradient id="paint0_linear_4_934" x1="110.893" y1="-190.38" x2="-123.536" y2="345.66" gradientUnits="userSpaceOnUse">
<stop stop-color="#4A74EA"/>
<stop offset="0.147468" stop-color="#94B4F0"/>
<stop offset="0.243769" stop-color="#4A74EA"/>
<stop offset="0.346678" stop-color="#4A74EA"/>
<stop offset="0.566893" stop-color="#7E9AE9"/>
<stop offset="0.822514" stop-color="#4A74EA"/>
<stop offset="1" stop-color="#D9E2F3"/>
</linearGradient>
</defs>
</svg>
